<?xml version="1.0" encoding="UTF-8" standalone="no"?> <svg viewBox="0 0 512 512" xmlns="http://www.w3.org/2000/svg"><path d="m336 10h-186c-11.050781 0-20 8.949219-20 20v166h226v-166c0-11.050781-8.949219-20-20-20zm0 0" fill="#ffe781"/><path d="m356 196c-44.636719 0-82.535156 0-126 0v-120h-60v120c-33.367188 0-71.464844 0-117.859375 0-19.929687 0-38.390625-13.621094-41.589844-33.28125-.371093-2.269531-.550781-4.519531-.550781-6.71875v306c0 22.089844 17.910156 40 40 40h306c22.089844 0 40-17.910156 40-40v-226c0-22.089844-17.910156-40-40-40zm0 0" fill="#424d63"/><path d="m502 276v90c0 11.050781-8.949219 20-20 20-20.777344 0-146.667969 0-166 0-11.050781 0-20-8.949219-20-20v-40c0-11.050781 8.949219-20 20-20h156c16.558594 0 30-13.441406 30-30zm0 0" fill="#ffe781"/><path d="m472 246c16.570312 0 30 13.429688 30 30 0 16.558594-13.441406 30-30 30h-10v-60zm0 0" fill="#424d63"/><path d="m462 386v36c0 22.089844-17.910156 40-40 40h-26v-76zm0 0" fill="#fed2a4"/><path d="m462 306h-66v-70c0-22.089844-17.910156-40-40-40v-80h66c22.089844 0 40 17.910156 40 40zm0 0" fill="#fed2a4"/><path d="m290 96v100h-60v-120h40c11.050781 0 20 8.949219 20 20zm0 0" fill="#e87288"/><path d="m170 76v120h-100c0-11.265625 0-90.035156 0-100 0-11.050781 8.949219-20 20-20zm0 0" fill="#e87288"/><path d="m70 116v80h-17.859375c-21.699219 0-42.140625-16.125-42.140625-40 0-22.089844 17.910156-40 40-40zm0 0" fill="#fed2a4"/><path d="m336.25 336c-5.519531 0-10 4.480469-10 10s4.480469 10 10 10 10-4.480469 10-10-4.480469-10-10-10zm0 0"/><path d="m200 326c-6.375 0-11.375-5.992188-9.660156-12.640625.699218-2.710937 2.585937-5.015625 5.085937-6.269531 4.726563-2.367188 10.234375-.816406 15.320313 4.070312 3.273437 3.144532 8.335937 3.863282 12.1875 1.460938 5.804687-3.617188 6.363281-11.34375 1.789062-15.765625-5.074218-4.914063-10.152344-7.691407-14.722656-9.207031v-11.441407c0-4.664062-3.101562-8.902343-7.652344-9.9375-6.542968-1.492187-12.347656 3.441407-12.347656 9.730469v11.71875c-11.640625 4.128906-20 15.246094-20 28.28125 0 16.523438 13.429688 29.96875 29.945312 30 4.492188.007812 8.578126 2.988281 9.707032 7.335938 1.734375 6.65625-3.269532 12.664062-9.652344 12.664062-4.242188 0-8.820312-2.648438-12.902344-7.464844-2.949218-3.484375-7.929687-4.730468-12.023437-2.714844-6.121094 3.011719-7.457031 10.625-3.371094 15.484376 5.347656 6.359374 11.632813 10.789062 18.296875 13.023437v11.464844c0 4.664062 3.101562 8.902343 7.648438 9.9375 6.546874 1.492187 12.351562-3.441407 12.351562-9.730469v-11.71875c11.640625-4.128906 20-15.246094 20-28.28125 0-16.542969-13.457031-30-30-30zm0 0"/><path d="m130 155.6875v-39.375c0-5.011719-3.554688-9.492188-8.515625-10.207031-6.183594-.886719-11.484375 3.882812-11.484375 9.894531v40c0 6.011719 5.300781 10.78125 11.484375 9.894531 4.960937-.714843 8.515625-5.195312 8.515625-10.207031zm0 0"/><path d="m472 236v-80c0-27.613281-22.386719-50-50-50h-56v-76c0-16.570312-13.429688-30-30-30h-186c-16.570312 0-30 13.429688-30 30v36h-42c-9.941406 0-18 8.058594-18 18v22h-30c-16.570312 0-30 13.429688-30 30v326c0 27.613281 22.386719 50 50 50h306c24.144531 0 44.347656-17.203125 48.992188-40h17.007812c27.613281 0 50-22.386719 50-50v-26h10c16.570312 0 30-13.429688 30-30v-90c0-22.054688-17.945312-40-40-40zm20 40c0 11.046875-8.953125 20-20 20v-40c11.027344 0 20 8.972656 20 20zm-70-150c16.570312 0 30 13.429688 30 30v140h-46v-60c0-24.144531-17.203125-44.347656-40-48.992188v-61.007812zm-282-96c0-5.523438 4.476562-10 10-10h186c5.523438 0 10 4.476562 10 10v156h-46v-90c0-16.570312-13.429688-30-30-30h-130zm100 156v-100h30c5.523438 0 10 4.476562 10 10v90zm-60 0v-100h40v100zm-90-100h70v100h-80v-90c0-5.523438 4.476562-10 10-10zm-39.464844 40h9.464844v60h-7.859375c-17.128906 0-33.277344-12.855469-32.078125-31.992188.992188-15.859374 14.578125-28.007812 30.472656-28.007812zm305.464844 366h-306c-16.570312 0-30-13.429688-30-30v-266.617188c8.941406 6.660157 20.171875 10.617188 32.140625 10.617188h303.859375c16.570312 0 30 13.429688 30 30v60h-70c-16.570312 0-30 13.429688-30 30v40c0 16.570312 13.429688 30 30 30h70v66c0 16.570312-13.429688 30-30 30zm66-40h-16v-56h46v26c0 16.570312-13.429688 30-30 30zm60-76h-166c-5.523438 0-10-4.476562-10-10v-40c0-5.523438 4.476562-10 10-10h156c7.136719 0 13.984375-1.867188 20-5.355469v55.355469c0 5.523438-4.476562 10-10 10zm0 0"/><path d="m422.25 336h-46c-5.523438 0-10 4.476562-10 10s4.476562 10 10 10h46c5.523438 0 10-4.476562 10-10s-4.476562-10-10-10zm0 0"/></svg>